<mxfile host="app.diagrams.net" agent="Mozilla/5.0 (Macintosh; Intel Mac OS X 10_15_7) AppleWebKit/537.36 (KHTML, like Gecko) Chrome/127.0.0.0 Safari/537.36" version="24.8.0">
  <diagram name="第 1 页" id="6F_wQRmF6UCD4mA0ghKT">
    <mxGraphModel dx="1084" dy="919" grid="1" gridSize="10" guides="1" tooltips="1" connect="1" arrows="1" fold="1" page="1" pageScale="1" pageWidth="827" pageHeight="1169" math="0" shadow="0">
      <root>
        <mxCell id="0" />
        <mxCell id="1" parent="0" />
        <mxCell id="7QuimkzVC01TMGDz-x9j-1" value="调度器" style="shape=umlLifeline;perimeter=lifelinePerimeter;whiteSpace=wrap;container=1;dropTarget=0;collapsible=0;recursiveResize=0;outlineConnect=0;portConstraint=eastwest;newEdgeStyle={&quot;edgeStyle&quot;:&quot;elbowEdgeStyle&quot;,&quot;elbow&quot;:&quot;vertical&quot;,&quot;curved&quot;:0,&quot;rounded&quot;:0};size=65;" vertex="1" parent="1">
          <mxGeometry x="20" y="20" width="150" height="652" as="geometry" />
        </mxCell>
        <mxCell id="7QuimkzVC01TMGDz-x9j-2" value="抓取服务" style="shape=umlLifeline;perimeter=lifelinePerimeter;whiteSpace=wrap;container=1;dropTarget=0;collapsible=0;recursiveResize=0;outlineConnect=0;portConstraint=eastwest;newEdgeStyle={&quot;edgeStyle&quot;:&quot;elbowEdgeStyle&quot;,&quot;elbow&quot;:&quot;vertical&quot;,&quot;curved&quot;:0,&quot;rounded&quot;:0};size=65;" vertex="1" parent="1">
          <mxGeometry x="220" y="20" width="150" height="652" as="geometry" />
        </mxCell>
        <mxCell id="7QuimkzVC01TMGDz-x9j-3" value="数据库" style="shape=umlLifeline;perimeter=lifelinePerimeter;whiteSpace=wrap;container=1;dropTarget=0;collapsible=0;recursiveResize=0;outlineConnect=0;portConstraint=eastwest;newEdgeStyle={&quot;edgeStyle&quot;:&quot;elbowEdgeStyle&quot;,&quot;elbow&quot;:&quot;vertical&quot;,&quot;curved&quot;:0,&quot;rounded&quot;:0};size=65;" vertex="1" parent="1">
          <mxGeometry x="420" y="20" width="150" height="652" as="geometry" />
        </mxCell>
        <mxCell id="7QuimkzVC01TMGDz-x9j-4" value="AI处理服务" style="shape=umlLifeline;perimeter=lifelinePerimeter;whiteSpace=wrap;container=1;dropTarget=0;collapsible=0;recursiveResize=0;outlineConnect=0;portConstraint=eastwest;newEdgeStyle={&quot;edgeStyle&quot;:&quot;elbowEdgeStyle&quot;,&quot;elbow&quot;:&quot;vertical&quot;,&quot;curved&quot;:0,&quot;rounded&quot;:0};size=65;" vertex="1" parent="1">
          <mxGeometry x="620" y="20" width="150" height="652" as="geometry" />
        </mxCell>
        <mxCell id="7QuimkzVC01TMGDz-x9j-5" value="启动抓取任务" style="verticalAlign=bottom;edgeStyle=elbowEdgeStyle;elbow=vertical;curved=0;rounded=0;endArrow=block;" edge="1" parent="1" source="7QuimkzVC01TMGDz-x9j-1" target="7QuimkzVC01TMGDz-x9j-2">
          <mxGeometry relative="1" as="geometry">
            <Array as="points">
              <mxPoint x="204" y="123" />
            </Array>
          </mxGeometry>
        </mxCell>
        <mxCell id="7QuimkzVC01TMGDz-x9j-6" value="抓取新闻" style="curved=1;endArrow=block;rounded=0;" edge="1" parent="1" source="7QuimkzVC01TMGDz-x9j-2" target="7QuimkzVC01TMGDz-x9j-2">
          <mxGeometry relative="1" as="geometry">
            <Array as="points">
              <mxPoint x="346" y="171" />
              <mxPoint x="346" y="201" />
            </Array>
          </mxGeometry>
        </mxCell>
        <mxCell id="7QuimkzVC01TMGDz-x9j-7" value="保存抓取结果" style="verticalAlign=bottom;edgeStyle=elbowEdgeStyle;elbow=vertical;curved=0;rounded=0;endArrow=block;" edge="1" parent="1" source="7QuimkzVC01TMGDz-x9j-2" target="7QuimkzVC01TMGDz-x9j-3">
          <mxGeometry relative="1" as="geometry">
            <Array as="points">
              <mxPoint x="404" y="249" />
            </Array>
          </mxGeometry>
        </mxCell>
        <mxCell id="7QuimkzVC01TMGDz-x9j-8" value="抓取成功" style="verticalAlign=bottom;edgeStyle=elbowEdgeStyle;elbow=vertical;curved=0;rounded=0;dashed=1;dashPattern=2 3;endArrow=block;" edge="1" parent="1" source="7QuimkzVC01TMGDz-x9j-2" target="7QuimkzVC01TMGDz-x9j-1">
          <mxGeometry relative="1" as="geometry">
            <Array as="points">
              <mxPoint x="207" y="297" />
            </Array>
          </mxGeometry>
        </mxCell>
        <mxCell id="7QuimkzVC01TMGDz-x9j-9" value="启动AI处理" style="verticalAlign=bottom;edgeStyle=elbowEdgeStyle;elbow=vertical;curved=0;rounded=0;endArrow=block;" edge="1" parent="1" source="7QuimkzVC01TMGDz-x9j-1" target="7QuimkzVC01TMGDz-x9j-4">
          <mxGeometry relative="1" as="geometry">
            <Array as="points">
              <mxPoint x="404" y="345" />
            </Array>
          </mxGeometry>
        </mxCell>
        <mxCell id="7QuimkzVC01TMGDz-x9j-10" value="获取新闻内容" style="verticalAlign=bottom;edgeStyle=elbowEdgeStyle;elbow=vertical;curved=0;rounded=0;endArrow=block;" edge="1" parent="1" source="7QuimkzVC01TMGDz-x9j-4" target="7QuimkzVC01TMGDz-x9j-3">
          <mxGeometry relative="1" as="geometry">
            <Array as="points">
              <mxPoint x="607" y="393" />
            </Array>
          </mxGeometry>
        </mxCell>
        <mxCell id="7QuimkzVC01TMGDz-x9j-11" value="生成摘要和标题" style="curved=1;endArrow=block;rounded=0;" edge="1" parent="1" source="7QuimkzVC01TMGDz-x9j-4" target="7QuimkzVC01TMGDz-x9j-4">
          <mxGeometry relative="1" as="geometry">
            <Array as="points">
              <mxPoint x="746" y="441" />
              <mxPoint x="746" y="471" />
            </Array>
          </mxGeometry>
        </mxCell>
        <mxCell id="7QuimkzVC01TMGDz-x9j-12" value="保存处理结果" style="verticalAlign=bottom;edgeStyle=elbowEdgeStyle;elbow=vertical;curved=0;rounded=0;endArrow=block;" edge="1" parent="1" source="7QuimkzVC01TMGDz-x9j-4" target="7QuimkzVC01TMGDz-x9j-3">
          <mxGeometry relative="1" as="geometry">
            <Array as="points">
              <mxPoint x="607" y="519" />
            </Array>
          </mxGeometry>
        </mxCell>
        <mxCell id="7QuimkzVC01TMGDz-x9j-13" value="处理完成" style="verticalAlign=bottom;edgeStyle=elbowEdgeStyle;elbow=vertical;curved=0;rounded=0;dashed=1;dashPattern=2 3;endArrow=block;" edge="1" parent="1" source="7QuimkzVC01TMGDz-x9j-4" target="7QuimkzVC01TMGDz-x9j-1">
          <mxGeometry relative="1" as="geometry">
            <Array as="points">
              <mxPoint x="407" y="567" />
            </Array>
          </mxGeometry>
        </mxCell>
      </root>
    </mxGraphModel>
  </diagram>
</mxfile>
